<?xml version="1.0" standalone="no"?>
<!DOCTYPE svg PUBLIC "-//W3C//DTD SVG 20010904//EN"
 "http://www.w3.org/TR/2001/REC-SVG-20010904/DTD/svg10.dtd">
<svg version="1.0" xmlns="http://www.w3.org/2000/svg"
 width="512.000000pt" height="512.000000pt" viewBox="0 0 512.000000 512.000000"
 preserveAspectRatio="xMidYMid meet">

<g transform="translate(0.000000,512.000000) scale(0.100000,-0.100000)"
fill="#000000" stroke="none">
<path d="M2480 4579 c-196 -21 -429 -98 -595 -198 -366 -220 -609 -550 -713
-971 -26 -105 -26 -105 -29 -631 l-4 -526 -179 -337 c-98 -185 -186 -356 -195
-381 -24 -62 -18 -184 13 -247 32 -65 94 -125 160 -156 l57 -27 473 -5 473 -5
27 -80 c38 -114 85 -187 177 -280 138 -139 300 -205 499 -205 165 0 302 45
431 142 124 92 235 260 261 395 l6 32 477 3 c475 3 476 3 528 27 156 70 234
265 170 421 -13 30 -100 200 -194 376 l-172 321 -4 519 c-3 483 -5 525 -25
612 -47 209 -115 370 -226 537 -150 224 -338 390 -575 509 -269 135 -542 186
-841 155z m376 -294 c246 -43 470 -161 649 -340 199 -199 324 -455 355 -730 5
-49 10 -299 10 -555 0 -461 1 -466 23 -520 13 -30 100 -200 195 -377 95 -178
172 -328 172 -335 0 -6 -7 -20 -17 -30 -15 -17 -78 -18 -1596 -18 -1457 0
-1582 1 -1599 17 -10 9 -18 23 -18 31 0 8 83 172 185 362 101 191 189 367 194
391 6 26 11 236 11 514 0 529 6 595 65 773 139 416 484 720 920 812 115 24
327 26 451 5z m194 -3192 c0 -5 -14 -32 -31 -62 -142 -247 -464 -294 -674
-100 -35 32 -105 141 -105 163 0 3 182 6 405 6 223 0 405 -3 405 -7z"/>
</g>
</svg>
